<?xml version="1.0" standalone="no"?>
<!DOCTYPE svg PUBLIC "-//W3C//DTD SVG 20010904//EN"
 "http://www.w3.org/TR/2001/REC-SVG-20010904/DTD/svg10.dtd">
<svg version="1.0" xmlns="http://www.w3.org/2000/svg"
 width="300.000000pt" height="300.000000pt" viewBox="0 0 300.000000 300.000000"
 preserveAspectRatio="xMidYMid meet">
<metadata>
Created by potrace 1.10, written by Peter Selinger 2001-2011
</metadata>
<g transform="translate(0.000000,300.000000) scale(0.100000,-0.100000)"
fill="#005305" stroke="none">
<path d="M1383 2232 c-265 -328 -280 -347 -262 -336 9 5 113 80 232 167 l216
158 320 -237 c176 -131 319 -239 318 -240 -1 -1 -44 9 -95 22 -186 47 -300 59
-552 58 -193 -1 -256 -5 -351 -22 -346 -63 -575 -194 -634 -363 -17 -47 -19
-116 -6 -152 l10 -25 -57 5 c-54 5 -63 3 -157 -47 -55 -29 -116 -56 -135 -60
l-35 -7 27 -11 c22 -9 42 -7 100 9 157 44 159 43 327 -64 137 -87 185 -107
257 -107 33 0 82 7 109 17 l49 16 -172 86 -173 86 -14 49 c-40 135 9 244 160
352 264 188 797 257 1227 159 57 -13 114 -28 128 -34 l25 -12 -25 6 c-419 87
-812 75 -1085 -34 -66 -27 -190 -93 -145 -77 337 115 505 142 830 133 184 -5
356 -26 459 -57 19 -5 36 -9 37 -7 5 5 -721 806 -731 806 -5 0 -96 -106 -202
-237z"/>
<path d="M1182 1562 c-105 -38 -155 -121 -156 -257 -1 -188 89 -285 264 -285
176 0 265 96 263 286 -2 174 -80 261 -242 270 -58 4 -89 0 -129 -14z m158
-115 c38 -19 60 -72 60 -145 0 -107 -38 -162 -110 -162 -72 0 -110 55 -110
162 0 100 40 158 110 158 14 0 36 -6 50 -13z"/>
<path d="M1832 1562 c-103 -37 -154 -120 -155 -252 -2 -107 17 -165 72 -220
53 -53 101 -70 192 -70 110 0 175 31 222 103 47 72 56 222 19 318 -16 40 -61
88 -105 110 -59 31 -176 35 -245 11z m167 -118 c33 -24 51 -74 51 -144 0 -105
-38 -160 -111 -160 -77 0 -115 65 -107 181 6 73 25 114 61 129 35 14 81 11
106 -6z"/>
<path d="M2350 1296 l0 -276 70 0 69 0 3 93 3 92 66 6 c123 10 186 81 177 200
-5 67 -26 103 -79 134 -29 17 -56 21 -171 23 l-138 4 0 -276z m228 142 c17
-17 15 -68 -5 -90 -9 -10 -30 -18 -50 -18 l-33 0 0 60 0 60 38 0 c21 0 43 -5
50 -12z"/>
<path d="M153 1132 c-28 -13 -52 -46 -41 -57 2 -2 20 12 41 32 21 19 37 36 35
38 -2 1 -18 -4 -35 -13z"/>
<path d="M534 1042 c53 -60 107 -114 121 -120 40 -18 96 -24 140 -15 l40 9
-156 107 c-243 166 -278 171 -145 19z"/>
<path d="M182 1096 c-18 -20 -32 -48 -32 -61 0 -14 2 -25 4 -25 9 0 67 102 64
112 -2 6 -18 -6 -36 -26z"/>
<path d="M390 1126 c0 -3 22 -52 48 -109 60 -126 103 -166 172 -155 20 3 12
15 -71 119 -79 98 -149 166 -149 145z"/>
<path d="M226 1071 c-29 -56 -33 -93 -13 -110 11 -9 17 5 32 69 10 44 16 83
12 86 -3 3 -17 -17 -31 -45z"/>
<path d="M281 1043 c-8 -53 -9 -86 -3 -103 10 -27 39 -56 47 -48 8 7 -13 210
-22 219 -6 6 -15 -23 -22 -68z"/>
<path d="M340 1100 c1 -14 7 -61 15 -105 12 -67 19 -84 45 -107 17 -16 39 -28
49 -28 17 0 13 13 -31 118 -53 126 -78 165 -78 122z"/>
</g>
</svg>
